#!OML:ASF F:\VICON\USERDATA\INSTALL\rory7\rory7.ASF
:FULLY-SPECIFIED
:DEGREES
448
root -0.0452216 18.8449 4.11777 -2.85951 -4.08673 0.400368
lowerback 6.85631 1.93673 -1.11717
upperback 0.598319 2.45913 -0.973968
thorax -3.22794 1.23136 -0.612174
lowerneck -7.59005 -4.12801 -6.18005
upperneck 11.5681 -5.9482 8.84089
head 5.16844 -2.64124 3.35742
rclavicle -1.4238e-014 -2.78299e-015
rhumerus -3.80701 34.2501 -66.4981
rradius 129.77
rwrist -27.8454
rhand -34.426 0.189849
rfingers 7.12502
rthumb -7.59073 -29.6539
lclavicle -1.4238e-014 -2.78299e-015
lhumerus -34.1132 13.876 72.5231
lradius 21.8838
lwrist -8.47153
lhand -23.1944 22.0943
lfingers 7.12502
lthumb 3.25533 52.0491
rfemur 0 0 0
rtibia 0
rfoot 0 0
rtoes 0
lfemur 5.9291 -10.6395 -19.1155
ltibia 10.4077
lfoot -13.0268 21.2466
ltoes -4.61295
449
root -0.0452667 18.843 4.12049 -2.88155 -4.1387 0.445287
lowerback 6.79645 1.95064 -1.12116
upperback 0.63724 2.47735 -1.02362
thorax -3.1522 1.24015 -0.659553
lowerneck -7.71499 -4.17298 -6.15774
upperneck 11.9064 -6.04419 8.93855
head 5.30393 -2.67293 3.37537
rclavicle -2.0276e-014 -4.37326e-015
rhumerus -4.58567 34.4103 -67.1847
rradius 129.531
rwrist -27.6483
rhand -34.3236 0.347711
rfingers 7.12502
rthumb -7.49192 -29.4996
lclavicle -2.0276e-014 -4.37326e-015
lhumerus -34.1572 13.6983 72.6004
lradius 22.0552
lwrist -8.27731
lhand -23.0936 22.4016
lfingers 7.12502
lthumb 3.35272 52.355
rfemur 0 0 0
rtibia 0
rfoot 0 0
rtoes 0
lfemur 5.94835 -10.6791 -19.1926
ltibia 10.4527
lfoot -13.1011 21.3358
ltoes -4.69637
450
root -0.0459091 18.8426 4.12185 -2.93507 -4.18118 0.373311
lowerback 6.78757 1.95609 -0.983587
upperback 0.686495 2.49433 -1.06793
thorax -3.08844 1.24659 -0.782099
lowerneck -7.7169 -4.20571 -6.09552
upperneck 12.1347 -6.1306 9.06174
head 5.38355 -2.701 3.39758
rclavicle -7.45443e-016 1.55052e-014
rhumerus -5.23825 34.5173 -67.7793
rradius 129.212
rwrist -27.5215
rhand -33.8729 -1.0019
rfingers 7.12502
rthumb -7.05691 -30.8643
lclavicle -7.45443e-016 1.55052e-014
lhumerus -34.1501 13.6271 72.5936
lradius 22.1584
lwrist -8.30624
lhand -23.0099 22.558
lfingers 7.12502
lthumb 3.43358 52.5101
rfemur 0 0 0
rtibia 0
rfoot 0 0
rtoes 0
lfemur 6.01038 -10.6663 -19.1269
ltibia 10.4788
lfoot -13.111 21.3579
ltoes -4.83991
451
root -0.0473432 18.8427 4.12198 -2.96534 -4.20357 0.267422
lowerback 6.85226 1.92378 -0.893838
upperback 0.65577 2.45794 -1.02718
thorax -3.15452 1.22752 -0.79014
lowerneck -7.66891 -4.21862 -6.13328
upperneck 12.4251 -6.17073 9.08814
head 5.4701 -2.71743 3.41042
rclavicle 2.3792e-014 -1.27222e-014
rhumerus -5.76248 34.7515 -68.2429
rradius 128.888
rwrist -27.6113
rhand -33.5202 -2.16779
rfingers 7.12502
rthumb -6.71636 -32.0413
lclavicle 2.3792e-014 -1.27222e-014
lhumerus -34.2164 13.678 72.6084
lradius 22.0905
lwrist -8.29138
lhand -23.0496 22.5326
lfingers 7.12502
lthumb 3.39518 52.4853
rfemur 0 0 0
rtibia 0
rfoot 0 0
rtoes 0
lfemur 6.03645 -10.615 -19.002
ltibia 10.4927
lfoot -13.0263 21.3706
ltoes -5.03525
452
root -0.0488259 18.8426 4.1259 -2.98975 -4.25465 0.279961
lowerback 6.8857 1.90751 -0.964447
upperback 0.602714 2.43126 -0.979693
thorax -3.23322 1.21541 -0.701784
lowerneck -7.77737 -4.26851 -6.23956
upperneck 12.9384 -6.25403 9.05815
head 5.65687 -2.75428 3.411
rclavicle 3.14328e-015 7.95139e-015
rhumerus -6.38366 35.028 -68.7479
rradius 128.662
rwrist -27.8509
rhand -33.6265 -2.32028
rfingers 7.12502
rthumb -6.81906 -32.1905
lclavicle 3.14328e-015 7.95139e-015
lhumerus -34.3117 13.7421 72.6608
lradius 21.9532
lwrist -8.19505
lhand -23.0982 22.3103
lfingers 7.12502
lthumb 3.34823 52.2637
rfemur 0 0 0
rtibia 0
rfoot 0 0
rtoes 0
lfemur 6.07284 -10.6098 -19.0231
ltibia 10.5183
lfoot -13.1289 21.3992
ltoes -4.67384
453
root -0.0483685 18.8423 4.13183 -2.98552 -4.30561 0.307223
lowerback 6.80931 1.91067 -0.997526
upperback 0.603161 2.43456 -0.972315
thorax -3.19173 1.21761 -0.673101
lowerneck -7.89485 -4.35475 -6.27611
upperneck 13.3566 -6.3897 9.03537
head 5.81874 -2.8141 3.39745
rclavicle 1.26787e-014 -1.11319e-014
rhumerus -6.98267 35.1556 -69.2363
rradius 128.461
rwrist -28.0003
rhand -33.8389 -2.34229
rfingers 7.12502
rthumb -7.02403 -32.2057
lclavicle 1.26787e-014 -1.11319e-014
lhumerus -34.3272 13.731 72.7335
lradius 21.9041
lwrist -8.09171
lhand -23.1797 22.1331
lfingers 7.12502
lthumb 3.26953 52.0878
rfemur 0 0 0
rtibia 0
rfoot 0 0
rtoes 0
lfemur 6.11112 -10.6072 -19.0649
ltibia 10.5059
lfoot -13.2494 21.4091
ltoes -4.29601
454
root -0.0467575 18.8418 4.13516 -2.97049 -4.32216 0.319111
lowerback 6.78333 1.89826 -1.00863
upperback 0.559292 2.41726 -0.969313
thorax -3.22318 1.20924 -0.66225
lowerneck -7.75674 -4.42044 -6.28341
upperneck 13.6105 -6.50179 9.01966
head 5.88276 -2.86986 3.38739
rclavicle 2.24813e-014 -2.38542e-015
rhumerus -7.54568 35.2772 -69.6972
rradius 128.259
rwrist -28.0788
rhand -33.9816 -2.53496
rfingers 7.12502
rthumb -7.16184 -32.3938
lclavicle 2.24813e-014 -2.38542e-015
lhumerus -34.4209 13.7874 72.7275
lradius 21.9101
lwrist -8.12664
lhand -23.0942 22.2354
lfingers 7.12502
lthumb 3.35215 52.1888
rfemur 0 0 0
rtibia 0
rfoot 0 0
rtoes 0
lfemur 6.13505 -10.598 -19.0854
ltibia 10.4625
lfoot -13.2294 21.4386
ltoes -4.39223
455
root -0.046305 18.8415 4.13601 -2.99713 -4.35251 0.355595
lowerback 6.83353 1.88232 -1.07643
upperback 0.50111 2.38958 -0.958759
thorax -3.31472 1.19651 -0.614113
lowerneck -7.71254 -4.43363 -6.29912
upperneck 14.0141 -6.54902 9.01169
head 6.00518 -2.88923 3.38552
rclavicle 2.842e-014 -2.62396e-014
rhumerus -8.07794 35.4407 -70.1422
rradius 128.083
rwrist -28.3218
rhand -33.992 -3.01711
rfingers 7.12502
rthumb -7.17184 -32.8756
lclavicle 2.842e-014 -2.62396e-014
lhumerus -34.5128 14.0268 72.6385
lradius 21.8198
lwrist -8.25084
lhand -22.9757 22.372
lfingers 7.12502
lthumb 3.46656 52.3236
rfemur 0 0 0
rtibia 0
rfoot 0 0
rtoes 0
lfemur 6.17356 -10.5896 -19.1368
ltibia 10.4637
lfoot -13.2056 21.4679
ltoes -4.5733
